<svg preserveAspectRatio="none" width="100%" height="100%" overflow="visible" style="display: block;" viewBox="0 0 1480 506" fill="none" xmlns="http://www.w3.org/2000/svg">
<g id="2099">
<path id="Vector" d="M565 505.943C509.48 505.943 465.771 488.91 433.874 454.846C401.977 420.781 386 371.57 386 307.155V198.731C386 136.145 401.977 87.3912 433.874 52.4118C465.771 17.4897 509.48 0 565 0C620.52 0 664.229 17.4897 696.126 52.469C728.023 87.4483 744 136.202 744 198.788V307.212C744 371.627 728.08 420.838 696.126 454.903C664.229 488.968 620.463 506 565 506V505.943ZM565 422.553C598.267 422.553 621.205 412.379 633.701 391.974C646.198 371.57 652.417 345.164 652.417 312.756V193.244C652.417 172.839 649.393 154.321 643.402 137.631C637.41 120.942 627.995 107.739 615.328 98.0221C602.603 88.3057 585.827 83.4474 565 83.4474C544.173 83.4474 527.283 88.3057 514.33 98.0221C501.377 107.739 492.019 120.942 486.256 137.631C480.436 154.321 477.583 172.839 477.583 193.244V312.756C477.583 345.221 483.802 371.627 496.299 391.974C508.795 412.379 531.676 422.553 565 422.553ZM565 311.385C549.251 311.385 535.614 305.612 524.03 294.009C512.447 282.464 506.684 268.746 506.684 253.029C506.684 237.311 512.447 223.593 524.03 211.991C535.614 200.445 549.251 194.615 565 194.615C580.749 194.615 594.329 200.445 605.913 211.991C617.439 223.593 623.259 237.254 623.259 253.029C623.259 268.804 617.439 282.464 605.913 294.009C594.386 305.555 580.692 311.385 565 311.385Z" fill="var(--fill-0, #1E1E1E)"/>
<path id="Vector_2" d="M4.28571 506V408.21C4.28571 373.712 11.0286 345.601 24.5143 323.877C38 302.152 57.3143 285.046 82.4 272.501C107.486 260.014 136.857 249.921 170.457 242.394C195.543 236.749 214.857 229.964 228.343 222.209C241.829 214.397 251.2 205.331 256.4 194.896C261.6 184.518 264.229 172.487 264.229 158.745C264.229 138.902 257.029 122.366 242.571 109.137C228.114 95.9085 208.114 89.2941 182.571 89.2941C155.6 89.2941 134 97.4481 117.943 113.756C101.829 130.064 93.7714 152.644 93.7714 181.439V212.629C93.3714 212.629 45.0286 212.629 44.6286 212.629C44.3429 212.629 0.285714 212.629 0 212.629V172.943C0 141.753 7.2 113.072 21.6571 86.8422C36.1143 60.6128 56.6857 39.6293 83.4286 23.7776C110.229 7.92585 142.286 0 179.714 0C219.486 0 252.629 7.35565 279.143 21.9529C305.657 36.6072 325.429 55.7661 338.457 79.3726C351.486 103.036 358 128.068 358 154.469V162.965C358 204.076 346.286 238.46 322.857 266.058C299.429 293.713 261.2 313.67 208.171 325.929C178.343 332.544 155.486 339.728 139.657 347.54C123.771 355.352 112.914 364.076 106.971 373.769C101.029 383.463 98.1143 394.924 98.1143 408.153V416.649H353.771V505.943H4.28571V506Z" fill="var(--fill-0, #2B5FFF)"/>
<path id="Vector_3" d="M1480 304.85V154.676C1480 124.243 1472.84 97.6218 1458.51 74.6976C1444.19 51.7734 1424.69 33.9118 1400.02 21.1699C1375.35 8.37099 1347.62 2 1316.81 2C1283.33 2 1254.17 8.82606 1229.27 22.4782C1204.37 36.1303 1185.1 54.7882 1171.46 78.3381C1157.82 101.945 1151 128.453 1151 158.032V165.939C1151 195.917 1157.14 222.254 1169.47 244.951C1181.81 267.648 1198.41 285.282 1219.38 297.853C1240.3 310.424 1263.94 316.681 1290.38 316.681C1316.81 316.681 1336.42 311.846 1350.51 302.119C1364.61 292.449 1374.73 280.105 1380.92 265.088H1392.8L1392.69 333.064V415.659L1239.84 415.944V335.851H1151V424.761H1231.03V504H1480V415.546V304.907V304.85ZM1370.98 213.21C1356.43 226.691 1337.95 233.404 1315.5 233.404C1293.05 233.404 1274.52 226.691 1260.02 213.21C1245.47 199.785 1238.2 181.81 1238.2 159.341C1238.2 136.872 1245.47 118.896 1260.02 105.472C1274.57 92.0471 1293.05 85.3348 1315.5 85.3348C1337.95 85.3348 1356.48 92.0471 1370.98 105.472C1385.53 118.953 1392.75 136.872 1392.75 159.341C1392.75 181.81 1385.47 199.785 1370.98 213.21Z" fill="var(--fill-0, #2B5FFF)"/>
<path id="Vector_4" d="M1113 304.85V154.676C1113 124.243 1105.82 97.6218 1091.45 74.6976C1077.08 51.7734 1057.52 33.9118 1032.78 21.1699C1008.04 8.37099 980.213 2 949.311 2C915.73 2 886.481 8.82606 861.509 22.4782C836.537 36.1303 817.209 54.7882 803.525 78.3381C789.842 101.945 783 128.453 783 158.032V165.939C783 195.917 789.158 222.254 801.53 244.951C813.902 267.648 830.55 285.282 851.589 297.853C872.57 310.424 896.288 316.681 922.8 316.681C949.311 316.681 968.981 311.846 983.121 302.119C997.261 292.449 1007.41 280.105 1013.62 265.088H1025.54L1025.43 333.064V415.659L872.114 415.944V335.851H783V424.761H863.276V504H1113V415.546V304.907V304.85ZM1003.65 213.21C989.051 226.691 970.521 233.404 948 233.404C925.479 233.404 906.893 226.691 892.354 213.21C877.758 199.785 870.46 181.81 870.46 159.341C870.46 136.872 877.758 118.896 892.354 105.472C906.95 92.0471 925.479 85.3348 948 85.3348C970.521 85.3348 989.108 92.0471 1003.65 105.472C1018.24 118.953 1025.48 136.872 1025.48 159.341C1025.48 181.81 1018.18 199.785 1003.65 213.21Z" fill="var(--fill-0, #1E1E1E)"/>
</g>
</svg>
