<svg width="1440" height="720" viewBox="0 0 1440 720" fill="none" xmlns="http://www.w3.org/2000/svg" aria-hidden="true">
  <rect width="1440" height="720" fill="#080808"/>
  <path d="M289.5 641.936C227.621 641.936 178.907 622.985 143.357 585.083C107.807 547.181 90 492.426 90 420.756V300.117C90 230.482 107.807 176.236 143.357 137.316C178.907 98.4598 227.621 79 289.5 79C351.379 79 400.093 98.4598 435.643 137.38C471.193 176.299 489 230.545 489 300.181V420.819C489 492.49 471.257 547.245 435.643 585.147C400.093 623.049 351.315 642 289.5 642V641.936ZM289.5 549.152C326.576 549.152 352.142 537.833 366.069 515.129C379.997 492.426 386.929 463.046 386.929 426.988V294.012C386.929 271.309 383.558 250.705 376.881 232.135C370.203 213.565 359.71 198.875 345.592 188.064C331.41 177.253 312.712 171.848 289.5 171.848C266.288 171.848 247.463 177.253 233.027 188.064C218.591 198.875 208.161 213.565 201.738 232.135C195.251 250.705 192.071 271.309 192.071 294.012V426.988C192.071 463.109 199.003 492.49 212.931 515.129C226.858 537.833 252.36 549.152 289.5 549.152ZM289.5 425.462C271.948 425.462 256.748 419.039 243.838 406.129C230.928 393.283 224.505 378.02 224.505 360.532C224.505 343.043 230.928 327.781 243.838 314.871C256.748 302.025 271.948 295.538 289.5 295.538C307.052 295.538 322.188 302.025 335.098 314.871C347.945 327.781 354.431 342.98 354.431 360.532C354.431 378.084 347.945 393.283 335.098 406.129C322.252 418.975 306.989 425.462 289.5 425.462Z" fill="#1D1D1B" fill-opacity="0.09"/>
  <path d="M1306 416.237V249.012C1306 215.124 1298.03 185.479 1282.1 159.952C1266.16 134.425 1244.47 114.535 1217.03 100.347C1189.59 86.0944 1158.73 79 1124.45 79C1087.21 79 1054.77 86.6011 1027.07 101.803C999.377 117.006 977.941 137.782 962.764 164.006C947.588 190.293 940 219.811 940 252.749V261.554C940 294.936 946.829 324.263 960.551 349.537C974.273 374.811 992.737 394.447 1016.07 408.446C1039.34 422.445 1065.65 429.412 1095.05 429.412C1124.45 429.412 1146.27 424.028 1161.95 413.197C1177.63 402.428 1188.89 388.683 1195.78 371.96H1209L1208.87 447.655V539.629L1038.84 539.945V450.759H940V549.764H1029.03V638H1306V539.502V416.3V416.237ZM1184.72 314.192C1168.53 329.204 1147.98 336.678 1123 336.678C1098.02 336.678 1077.41 329.204 1061.28 314.192C1045.1 299.243 1037 279.227 1037 254.206C1037 229.186 1045.1 209.169 1061.28 194.221C1077.47 179.272 1098.02 171.797 1123 171.797C1147.98 171.797 1168.59 179.272 1184.72 194.221C1200.9 209.233 1208.94 229.186 1208.94 254.206C1208.94 279.227 1200.84 299.243 1184.72 314.192Z" fill="#1D1D1B" fill-opacity="0.09"/>
  <path d="M898 416.237V249.012C898 215.124 890.011 185.479 874.032 159.952C858.054 134.425 836.305 114.535 808.786 100.347C781.268 86.0944 750.325 79 715.958 79C678.612 79 646.084 86.6011 618.312 101.803C590.539 117.006 569.044 137.782 553.827 164.006C538.609 190.293 531 219.811 531 252.749V261.554C531 294.936 537.848 324.263 551.607 349.537C565.367 374.811 583.882 394.447 607.279 408.446C630.613 422.445 656.99 429.412 686.474 429.412C715.958 429.412 737.834 424.028 753.559 413.197C769.284 402.428 780.57 388.683 787.482 371.96H800.734L800.607 447.655V539.629L630.105 539.945V450.759H531V549.764H620.277V638H898V539.502V416.3V416.237ZM776.385 314.192C760.153 329.204 739.546 336.678 714.5 336.678C689.454 336.678 668.784 329.204 652.615 314.192C636.383 299.243 628.266 279.227 628.266 254.206C628.266 229.186 636.383 209.169 652.615 194.221C668.847 179.272 689.454 171.797 714.5 171.797C739.546 171.797 760.217 179.272 776.385 194.221C792.618 209.233 800.67 229.186 800.67 254.206C800.67 279.227 792.554 299.243 776.385 314.192Z" fill="#1D1D1B" fill-opacity="0.09"/>
  <circle cx="896.5" cy="254.5" r="81.5" fill="#1D1D1B" fill-opacity="0.53"/>
  <circle cx="1305.5" cy="254.5" r="81.5" fill="#1D1D1B" fill-opacity="0.53"/>
  <path d="M809 539H897V637H801V548H713V450H809V539Z" fill="#1D1D1B" fill-opacity="0.53"/>
  <path d="M1218 539H1306V637H1210V548H1122V450H1218V539Z" fill="#1D1D1B" fill-opacity="0.53"/>
  <circle cx="471.5" cy="357.5" r="65.5" fill="#1D1D1B" fill-opacity="0.53"/>
</svg>
