<svg preserveAspectRatio="none" width="100%" height="100%" overflow="visible" style="display: block;" viewBox="0 0 961 452" fill="none" xmlns="http://www.w3.org/2000/svg">
<path id="Union" d="M280.772 0C286.144 0.000120618 291.157 2.69585 294.119 7.17676L327.862 58.2188C330.825 62.6997 335.837 65.3954 341.209 65.3955H637.957C639.063 65.3955 640.143 65.5079 641.187 65.7217L945.014 65.9844C953.845 65.992 961 73.1532 961 81.9844V435.5C961 444.337 953.837 451.5 945 451.5H641.94C640.667 451.826 639.332 452 637.957 452H16C7.16345 452 0 444.837 0 436V16C3.60808e-06 7.16345 7.16345 0 16 0H280.772Z" fill="#111111" stroke="#2A2A2A" stroke-width="1"/>
</svg>
