<svg preserveAspectRatio="xMidYMid meet" width="73" height="42" overflow="visible" style="display: block;" viewBox="0 0 73 42" fill="none" xmlns="http://www.w3.org/2000/svg">
<g id="Group">
<path id="Vector" d="M2.09331 37.5304C1.52216 37.5304 1.02979 37.7347 0.619016 38.1405C0.20824 38.5492 0.00285208 39.0486 0.00285208 39.6389C0.00285208 40.2292 0.20824 40.7315 0.619016 41.1373C1.02979 41.5431 1.52216 41.7474 2.09331 41.7474C2.66446 41.7474 3.15683 41.5431 3.5676 41.1373C3.97838 40.7315 4.18377 40.2292 4.18377 39.6389C4.18377 39.0486 3.97838 38.5464 3.5676 38.1405C3.15683 37.7347 2.66446 37.5304 2.09331 37.5304Z" fill="#f2f2f0"/>
<path id="Vector_2" d="M7.55434 33.7249H5.613V35.8561H7.55434V37.8142H13.3559V39.5566H5.613V41.7077H13.5697V39.7695H15.5307V37.5985H13.5697V35.6404H7.76817V33.9178H15.5307V31.7668H7.55434V33.7249Z" fill="#f2f2f0"/>
<path id="Vector_3" d="M36.7392 36.977C36.7392 37.8199 36.5619 38.4868 36.2102 38.9749C35.8585 39.463 35.3042 39.707 34.5474 39.707C33.8975 39.707 33.4023 39.5055 33.0647 39.1054C32.727 38.7024 32.5554 38.1547 32.5554 37.4595V31.7554H30.0457V37.9845C30.0457 38.8954 30.2005 39.6474 30.5128 40.2434C30.8251 40.8393 31.2471 41.282 31.7789 41.5686C32.3106 41.8553 32.9015 42 33.5514 42C34.9976 42 35.9429 41.4239 36.379 40.2718H36.7363V41.7191H39.246V31.7554H36.7363V36.9799L36.7392 36.977Z" fill="#f2f2f0"/>
<path id="Vector_4" d="M58.4681 31.7554H52.8523V34.1647H55.9584V39.3097H52.6131V41.7191H61.3379V39.3097H58.4681V31.7554Z" fill="#f2f2f0"/>
<path id="Vector_5" d="M57.1936 30.7111C57.7112 30.7111 58.1558 30.5266 58.5272 30.1577C58.8986 29.7888 59.0843 29.3376 59.0843 28.8012C59.0843 28.2649 58.8986 27.8136 58.5272 27.4447C58.1558 27.0758 57.7112 26.8914 57.1936 26.8914C56.6759 26.8914 56.2313 27.0758 55.8599 27.4447C55.4886 27.8136 55.3029 28.2649 55.3029 28.8012C55.3029 29.3376 55.4886 29.7888 55.8599 30.1577C56.2313 30.5266 56.6759 30.7111 57.1936 30.7111Z" fill="#f2f2f0"/>
<path id="Vector_6" d="M48.3309 31.6419H42.6729V33.6142H40.7175V39.707H42.6729V41.7191H48.3309H50.8406V27.6576H48.3309V31.6419ZM48.3309 39.4914H42.8895V33.81H48.3309V39.4914Z" fill="#f2f2f0"/>
<path id="Vector_7" d="M71.0277 31.7299H64.9814V33.6965H63.0316V39.7723H64.9814V41.7191H71.0277V39.7723H73V33.6965H71.0277V31.7299ZM70.8139 39.5566H65.1981V33.8923H70.8139V39.5566Z" fill="#f2f2f0"/>
<path id="Vector_8" d="M26.194 39.3097H23.6056C23.2482 39.3097 23.0682 39.1082 23.0682 38.7081V34.1676H26.6329V31.7582H23.0682V27.6604H20.5585V31.7582H17.6296V34.1676H20.5585V40.1554C20.5585 40.6095 20.702 40.9869 20.9862 41.2792C21.2731 41.5743 21.6389 41.7219 22.0919 41.7219H26.4332V39.5623H28.5996V37.1388H26.1968V39.3126L26.194 39.3097Z" fill="#f2f2f0"/>
<path id="Vector_9" d="M68.006 38.4584C68.473 38.4584 68.8725 38.2909 69.2102 37.9589C69.545 37.6269 69.7138 37.2182 69.7138 36.7358C69.7138 36.2534 69.545 35.8447 69.2102 35.5127C68.8754 35.1807 68.473 35.0161 68.006 35.0161C67.5389 35.0161 67.1394 35.1835 66.8018 35.5127C66.467 35.8447 66.2982 36.2534 66.2982 36.7358C66.2982 37.2182 66.467 37.6269 66.8018 37.9589C67.1366 38.2909 67.5389 38.4584 68.006 38.4584Z" fill="#f2f2f0"/>
<g id="Group_2">
<path id="Vector_10" d="M13.7441 1.09257C12.4386 0.363243 10.8068 0 8.84857 0C7.0057 0 5.42731 0.394459 4.11058 1.18054C2.79384 1.96946 1.77815 3.01378 1.06914 4.31919C0.354506 5.62459 0 7.05487 0 8.60716V10.5823C0.0140677 10.5823 2.1833 10.5823 2.19737 10.5823C2.21707 10.5823 4.59732 10.5823 4.61701 10.5823V9.03C4.61701 7.59689 5.01372 6.47311 5.80714 5.66149C6.60056 4.84987 7.66126 4.44405 8.98925 4.44405C10.2469 4.44405 11.2316 4.77324 11.9435 5.43162C12.6553 6.09 13.0098 6.91297 13.0098 7.90054C13.0098 8.58162 12.8804 9.18324 12.6243 9.69973C12.3683 10.2162 11.9069 10.6703 11.2429 11.0591C10.5789 11.4478 9.62792 11.7827 8.39278 12.0636C6.73561 12.4411 5.29226 12.9405 4.05712 13.562C2.82198 14.1864 1.871 15.0377 1.20701 16.1189C0.543012 17.2001 0.211015 18.5992 0.211015 20.3161V25.183H17.4158V20.7389H4.82521V20.3161C4.82521 19.6577 4.97152 19.0873 5.26131 18.6049C5.55111 18.1224 6.08849 17.6882 6.87065 17.2995C7.65 16.9107 8.77542 16.5531 10.2441 16.2239C12.855 15.6138 14.7373 14.6177 15.8909 13.2442C17.0444 11.8678 17.6212 10.1566 17.6212 8.11338V7.69054C17.6212 6.37378 17.3004 5.12797 16.6589 3.95311C16.0175 2.77824 15.044 1.82473 13.7385 1.09541L13.7441 1.09257Z" fill="#f2f2f0"/>
<path id="Vector_11" d="M27.7527 25.183C30.4903 25.183 32.6455 24.3373 34.2182 22.6459C35.791 20.9546 36.5788 18.5112 36.5788 15.313V9.9296C36.5788 6.82216 35.7938 4.40149 34.2182 2.66473C32.6426 0.930811 30.4875 0.0624324 27.7527 0.0624324C25.018 0.0624324 22.86 0.930811 21.2872 2.66757C19.7144 4.40432 18.9267 6.825 18.9267 9.93243V15.3158C18.9267 18.5141 19.7144 20.9574 21.2872 22.6488C22.86 24.3401 25.0151 25.1858 27.7527 25.1858V25.183ZM23.4396 9.65432C23.4396 8.64122 23.5802 7.72176 23.8672 6.89311C24.1514 6.06446 24.6128 5.40892 25.2515 4.92649C25.8902 4.44405 26.723 4.20284 27.7499 4.20284C28.7768 4.20284 29.6012 4.44405 30.2314 4.92649C30.8589 5.40892 31.3203 6.06446 31.6157 6.89311C31.9111 7.72176 32.0602 8.64122 32.0602 9.65432V15.5882C32.0602 17.2001 31.7536 18.5112 31.1374 19.5215C30.5212 20.5346 29.393 21.0397 27.7499 21.0397C26.1068 21.0397 24.9786 20.5346 24.3624 19.5215C23.7462 18.5084 23.4396 17.1973 23.4396 15.5882V9.65432Z" fill="#f2f2f0"/>
<path id="Vector_12" d="M27.7527 15.523C28.5264 15.523 29.1989 15.2364 29.77 14.6603C30.3384 14.087 30.6253 13.4059 30.6253 12.6255C30.6253 11.8451 30.3384 11.1641 29.77 10.588C29.1989 10.0147 28.5264 9.72527 27.7527 9.72527C26.979 9.72527 26.3037 10.0147 25.7326 10.588C25.1615 11.1641 24.8773 11.8423 24.8773 12.6255C24.8773 13.4088 25.1615 14.087 25.7326 14.6603C26.3037 15.2364 26.9762 15.523 27.7527 15.523Z" fill="#f2f2f0"/>
<path id="Vector_13" d="M73 15.1682V7.67635C73 6.15811 72.6455 4.83 71.9365 3.68635C71.2275 2.5427 70.2624 1.65162 69.0414 1.01595C67.8203 0.377432 66.4473 0.0595946 64.9223 0.0595946C63.2652 0.0595946 61.8218 0.400135 60.5895 1.08122C59.3572 1.7623 58.4034 2.69311 57.7281 3.86797C57.0529 5.04568 56.7153 6.36811 56.7153 7.84378V8.23824C56.7153 9.73378 57.0191 11.0477 57.6297 12.18C58.2402 13.3123 59.0617 14.192 60.0971 14.8192C61.1325 15.4464 62.3029 15.7585 63.6112 15.7585C64.9195 15.7585 65.8902 15.5173 66.588 15.032C67.2857 14.5496 67.7865 13.9338 68.0932 13.1846H68.6812L68.6756 16.5758V20.6964L61.11 20.7105V16.7149H56.7124V21.1504H60.6739V25.1035H72.9972V20.6907V15.1711L73 15.1682ZM67.6036 10.5965C66.8834 11.2691 65.969 11.6039 64.8576 11.6039C63.7463 11.6039 62.8291 11.2691 62.1116 10.5965C61.3914 9.92676 61.0312 9.03 61.0312 7.90905C61.0312 6.78811 61.3914 5.89135 62.1116 5.22162C62.8319 4.55189 63.7463 4.21703 64.8576 4.21703C65.969 4.21703 66.8862 4.55189 67.6036 5.22162C68.3239 5.89419 68.6812 6.78811 68.6812 7.90905C68.6812 9.03 68.3211 9.92676 67.6036 10.5965Z" fill="#f2f2f0"/>
<path id="Vector_14" d="M42.4478 25.1035H54.7711V20.6907V15.1711V7.67919C54.7711 6.16095 54.4166 4.83284 53.7076 3.68919C52.9986 2.54554 52.0335 1.65446 50.8125 1.01878C49.5914 0.38027 48.2184 0.0624324 46.6934 0.0624324C45.0363 0.0624324 43.5929 0.402973 42.3606 1.08405C41.1283 1.76514 40.1745 2.69595 39.4992 3.87081C38.824 5.04851 38.4864 6.37095 38.4864 7.84662V8.24108C38.4864 9.73662 38.7902 11.0505 39.4008 12.1828C40.0113 13.3151 40.8328 14.1949 41.8682 14.822C42.9036 15.4492 44.074 15.7614 45.3823 15.7614C46.6906 15.7614 47.6613 15.5201 48.3591 15.0349C49.0568 14.5524 49.5576 13.9366 49.8643 13.1874H50.4523L50.4467 16.5786V20.6992L42.8811 20.7134V16.7177H38.4835V21.1532H42.445V25.1064L42.4478 25.1035ZM49.3747 10.5965C48.6545 11.2691 47.7401 11.6039 46.6287 11.6039C45.5174 11.6039 44.6002 11.2691 43.8827 10.5965C43.1625 9.92676 42.8023 9.03 42.8023 7.90905C42.8023 6.78811 43.1625 5.89135 43.8827 5.22162C44.603 4.55189 45.5174 4.21703 46.6287 4.21703C47.7401 4.21703 48.6573 4.55189 49.3747 5.22162C50.095 5.89419 50.4523 6.78811 50.4523 7.90905C50.4523 9.03 50.0922 9.92676 49.3747 10.5965Z" fill="#f2f2f0"/>
</g>
</g>
</svg>
