<svg width="1280" height="166" viewBox="0 0 1280 166" fill="none" xmlns="http://www.w3.org/2000/svg" aria-hidden="true">
  <path d="M500.767 100.92C495.498 100.92 490.948 102.832 487.116 106.657C483.332 110.481 481.416 115.187 481.416 120.727C481.416 126.267 483.332 130.974 487.116 134.798C490.9 138.622 495.45 140.534 500.767 140.534C506.084 140.534 510.586 138.622 514.418 134.798C518.202 130.974 520.118 126.267 520.118 120.727C520.118 115.187 518.202 110.481 514.418 106.657C510.634 102.832 506.084 100.92 500.767 100.92Z" fill="#2B5FFF"/>
  <path d="M554.03 74.5358H532.39V98.2143H554.03V119.932H618.609V139.296H532.39V163.171H620.997V141.649H642.832V117.53H620.997V95.8121H556.418V76.6929H642.832V52.8184H554.03V74.5358Z" fill="#2B5FFF"/>
  <path d="M878.147 110.531C878.147 119.849 876.189 127.216 872.224 132.631C868.308 138.046 862.092 140.729 853.623 140.729C846.33 140.729 840.799 138.534 837.03 134.046C833.261 129.606 831.351 123.557 831.351 115.849V52.8184H803.304V121.606C803.304 131.655 805.066 139.998 808.541 146.584C812.017 153.17 816.765 158.048 822.687 161.219C828.61 164.39 835.218 166 842.512 166C858.714 166 869.238 159.658 874.133 146.925H878.147V162.927H906.195V52.8184H878.147V110.531Z" fill="#2B5FFF"/>
  <path d="M1104.43 41.5C1110.1 41.5 1115 39.4826 1119.09 35.4959C1123.17 31.5093 1125.19 26.5619 1125.19 20.75C1125.19 14.9381 1123.13 9.99074 1119.09 6.00405C1115 2.01736 1110.1 0 1104.43 0C1098.75 0 1093.85 2.01736 1089.76 6.00405C1085.68 9.99074 1083.66 14.9381 1083.66 20.75C1083.66 26.5619 1085.68 31.5093 1089.76 35.4959C1093.85 39.4826 1098.75 41.5 1104.43 41.5Z" fill="#2B5FFF"/>
  <path d="M1119.67 52.8184H1057.08V79.5141H1091.67V136.475H1054.4V163.171H1151.62V136.475H1119.67V52.8184Z" fill="#2B5FFF"/>
  <path d="M1006.5 51.6188H943.198V73.46H921.298V140.889H943.198V163.17H1006.5H1034.57V7.54541H1006.5V51.6677V51.6188ZM1006.5 138.495H945.599V75.6588H1006.5V138.495Z" fill="#2B5FFF"/>
  <path d="M1258.13 74.567V52.8184H1191.18V74.567H1169.56V141.666H1191.18V163.171H1258.13V141.666H1280V74.567H1258.13ZM1255.76 139.276H1193.56V76.7126H1255.76V139.276Z" fill="#2B5FFF"/>
  <path d="M761.268 136.492H732.328C728.312 136.492 726.305 134.244 726.305 129.798V79.5678H766.165V52.8892H726.305V7.54541H698.246V52.8892H665.486V79.5678H698.246V145.824C698.246 150.857 699.862 155.01 703.045 158.284C706.228 161.558 710.341 163.17 715.434 163.17H763.961V139.277H788.2V112.452H761.317V136.492H761.268Z" fill="#2B5FFF"/>
  <path d="M1224.31 127.329C1229.49 127.329 1233.89 125.491 1237.62 121.864C1241.35 118.236 1243.19 113.786 1243.19 108.466C1243.19 103.145 1241.35 98.6953 1237.62 95.0677C1233.89 91.4401 1229.49 89.6021 1224.31 89.6021C1219.13 89.6021 1214.72 91.4401 1210.99 95.0677C1207.27 98.6953 1205.43 103.194 1205.43 108.466C1205.43 113.738 1207.27 118.236 1210.99 121.864C1214.72 125.491 1219.13 127.329 1224.31 127.329Z" fill="#2B5FFF"/>
  <path d="M88.3016 9.79883C79.9127 5.15267 69.3902 2.82959 56.8311 2.82959C44.9994 2.82959 34.8163 5.34626 26.379 10.3312C17.8931 15.3645 11.3953 21.995 6.83719 30.3194C2.27906 38.6437 0 47.6941 0 57.6156V70.1989C0 70.1989 14.0138 70.1989 14.1108 70.1989C14.2078 70.1989 29.5309 70.1989 29.6763 70.1989V60.3258C29.6763 51.1787 32.2463 44.0643 37.3379 38.8857C42.4294 33.7072 49.2666 31.1421 57.8009 31.1421C65.8989 31.1421 72.2512 33.2232 76.8093 37.4338C81.3674 41.6444 83.6465 46.8713 83.6465 53.163C83.6465 57.5188 82.8222 61.3422 81.1735 64.6332C79.5248 67.9242 76.5669 70.8281 72.2997 73.2963C68.0325 75.7646 61.9227 77.8941 53.9702 79.6848C43.3022 82.0563 34.0405 85.2505 26.088 89.2191C18.1355 93.1877 12.0257 98.6082 7.75852 105.481C3.49133 112.353 1.35774 121.258 1.35774 132.196V163.171H112.014V134.906H30.9371V132.196C30.9371 127.986 31.8584 124.356 33.7495 121.307C35.6407 118.258 39.0835 115.451 44.0781 112.982C49.1211 110.514 56.3462 108.239 65.8019 106.158C82.5797 102.286 94.7024 95.9464 102.121 87.1864C109.541 78.4265 113.274 67.537 113.274 54.5181V51.8079C113.274 43.4351 111.189 35.4979 107.116 27.9963C102.994 20.4947 96.739 14.445 88.3501 9.79883H88.3016Z" fill="#2B5FFF"/>
  <path d="M178.407 65.0796C173.304 65.0796 168.894 66.8669 165.128 70.3946C161.362 73.9693 159.528 78.1554 159.528 83C159.528 87.8447 161.411 92.0308 165.128 95.6055C168.894 99.1802 173.304 100.92 178.407 100.92C183.511 100.92 187.921 99.1332 191.687 95.6055C195.453 92.0308 197.286 87.8447 197.286 83C197.286 78.1554 195.403 73.9693 191.687 70.3946C187.921 66.8199 183.511 65.0796 178.407 65.0796Z" fill="#2B5FFF"/>
  <path d="M178.431 2.82959C160.866 2.82959 147.028 8.36361 136.915 19.4802C126.802 30.5482 121.77 46.0338 121.77 65.8397V100.209C121.77 120.597 126.802 136.229 136.915 147.005C147.028 157.782 160.866 163.171 178.431 163.171C195.995 163.171 209.834 157.782 219.899 147.005C230.012 136.229 235.044 120.597 235.044 100.209V65.8397C235.044 46.0338 230.012 30.5482 219.899 19.4802C209.786 8.41215 195.947 2.82959 178.431 2.82959ZM206.108 101.956C206.108 112.248 204.124 120.597 200.157 127.054C196.189 133.51 188.979 136.763 178.431 136.763C167.882 136.763 160.624 133.559 156.705 127.054C152.737 120.597 150.802 112.248 150.802 101.956V64.0921C150.802 57.6358 151.721 51.762 153.56 46.4707C155.399 41.1794 158.35 37.0046 162.463 33.8978C166.576 30.7909 171.899 29.2861 178.479 29.2861C185.06 29.2861 190.383 30.8395 194.399 33.8978C198.415 37.0046 201.366 41.1794 203.302 46.4707C205.189 51.762 206.157 57.6358 206.157 64.0921V101.956H206.108Z" fill="#2B5FFF"/>
  <path d="M444.343 8.92677C436.414 4.86198 427.506 2.82959 417.619 2.82959C406.851 2.82959 397.502 5.00715 389.475 9.31389C381.497 13.669 375.281 19.5726 370.925 27.0247C366.52 34.5252 364.366 42.9452 364.366 52.3329V54.8492C364.366 64.3821 366.324 72.7052 370.289 79.9154C374.253 87.1255 379.588 92.6904 386.294 96.7068C392.999 100.675 400.635 102.707 409.103 102.707C417.57 102.707 423.884 101.159 428.436 98.1101C432.988 95.0132 436.218 91.0935 438.225 86.3513H442.043V107.933V134.161L392.95 134.258V108.853H364.415V137.064H390.112V162.227H470.089V134.161V99.0295V51.3651C470.089 41.7354 467.789 33.2671 463.188 25.9602C458.587 18.7016 452.322 13.0399 444.392 8.97516L444.343 8.92677ZM434.995 69.8502C430.345 74.1085 424.374 76.2377 417.179 76.2377C409.984 76.2377 404.012 74.1085 399.362 69.8502C394.713 65.5918 392.363 59.8818 392.363 52.7684C392.363 45.655 394.713 39.945 399.362 35.6866C404.012 31.4283 409.984 29.2991 417.179 29.2991C424.374 29.2991 430.345 31.4283 434.995 35.6866C439.645 39.945 441.994 45.655 441.994 52.7684C441.994 59.8818 439.645 65.5918 434.995 69.8502Z" fill="#2B5FFF"/>
  <path d="M327.523 8.92677C319.665 4.86198 310.836 2.82959 301.037 2.82959C290.365 2.82959 281.1 5.00715 273.145 9.31389C265.238 13.669 259.077 19.5726 254.76 27.0247C250.394 34.5252 248.26 42.9452 248.26 52.3329V54.8492C248.26 64.3821 250.2 72.7052 254.129 79.9154C258.059 87.1255 263.346 92.6904 269.992 96.7068C276.637 100.675 284.205 102.707 292.597 102.707C300.989 102.707 307.246 101.159 311.758 98.1101C316.269 95.0132 319.471 91.0935 321.459 86.3513H325.243V107.933V134.161L276.589 134.258V108.853H248.308V137.064H273.775V162.227H353.039V134.161V99.0295V51.3651C353.039 41.7354 350.759 33.2671 346.199 25.9602C341.639 18.7016 335.43 13.0399 327.571 8.97516L327.523 8.92677ZM318.258 69.8502C313.649 74.1085 307.731 76.2377 300.601 76.2377C293.47 76.2377 287.552 74.1085 282.943 69.8502C278.335 65.5918 276.007 59.8818 276.007 52.7684C276.007 45.655 278.335 39.945 282.943 35.6866C287.552 31.4283 293.47 29.2991 300.601 29.2991C307.731 29.2991 313.649 31.4283 318.258 35.6866C322.866 39.945 325.195 45.655 325.195 52.7684C325.195 59.8818 322.866 65.5918 318.258 69.8502Z" fill="#2B5FFF"/>
</svg>
